<svg width="1600" height="900" viewBox="0 0 1600 900" fill="none" xmlns="http://www.w3.org/2000/svg">
  <rect width="1600" height="900" fill="#081316"/>
  <rect x="58" y="50" width="1484" height="800" rx="32" fill="#0E1D20" stroke="#234A49" stroke-width="2"/>
  <rect x="58" y="50" width="1484" height="86" rx="32" fill="#10191B"/>
  <text x="104" y="102" fill="#EDF6F3" font-size="32" font-weight="700" font-family="Arial, Helvetica, sans-serif">TruthLens AI</text>
  <rect x="1120" y="74" width="160" height="40" rx="20" fill="#13262A" stroke="#315C5A"/>
  <text x="1168" y="100" fill="#EDF6F3" font-size="20" font-family="Arial, Helvetica, sans-serif">Dashboard</text>
  <rect x="1294" y="74" width="178" height="40" rx="20" fill="#16C2B0"/>
  <text x="1346" y="100" fill="#FFFFFF" font-size="20" font-weight="700" font-family="Arial, Helvetica, sans-serif">New Session</text>
  <g>
    <rect x="94" y="172" width="320" height="140" rx="24" fill="#13262A" stroke="#315C5A"/>
    <text x="126" y="216" fill="#88A7A2" font-size="22" font-family="Arial, Helvetica, sans-serif">Total Sessions</text>
    <text x="126" y="280" fill="#EDF6F3" font-size="64" font-weight="700" font-family="Arial, Helvetica, sans-serif">08</text>
    <text x="126" y="304" fill="#88A7A2" font-size="20" font-family="Arial, Helvetica, sans-serif">Virtual interview analyses</text>
    <rect x="448" y="172" width="320" height="140" rx="24" fill="#13262A" stroke="#315C5A"/>
    <text x="480" y="216" fill="#88A7A2" font-size="22" font-family="Arial, Helvetica, sans-serif">Average Score</text>
    <text x="480" y="280" fill="#16C2B0" font-size="64" font-weight="700" font-family="Arial, Helvetica, sans-serif">76</text>
    <text x="480" y="304" fill="#88A7A2" font-size="20" font-family="Arial, Helvetica, sans-serif">Candidate integrity average</text>
    <rect x="802" y="172" width="320" height="140" rx="24" fill="#13262A" stroke="#315C5A"/>
    <text x="834" y="216" fill="#88A7A2" font-size="22" font-family="Arial, Helvetica, sans-serif">Cleared</text>
    <text x="834" y="280" fill="#22C87A" font-size="64" font-weight="700" font-family="Arial, Helvetica, sans-serif">05</text>
    <text x="834" y="304" fill="#88A7A2" font-size="20" font-family="Arial, Helvetica, sans-serif">Score 80 and above</text>
    <rect x="1156" y="172" width="320" height="140" rx="24" fill="#13262A" stroke="#315C5A"/>
    <text x="1188" y="216" fill="#88A7A2" font-size="22" font-family="Arial, Helvetica, sans-serif">High Risk</text>
    <text x="1188" y="280" fill="#F04F4F" font-size="64" font-weight="700" font-family="Arial, Helvetica, sans-serif">01</text>
    <text x="1188" y="304" fill="#88A7A2" font-size="20" font-family="Arial, Helvetica, sans-serif">Manual rejection candidates</text>
  </g>
  <rect x="94" y="346" width="864" height="234" rx="24" fill="#13262A" stroke="#315C5A"/>
  <text x="126" y="392" fill="#EDF6F3" font-size="28" font-weight="700" font-family="Arial, Helvetica, sans-serif">Candidate Score Comparison</text>
  <g opacity="0.28">
    <path d="M150 534H904" stroke="#88A7A2"/>
    <path d="M150 482H904" stroke="#88A7A2"/>
    <path d="M150 430H904" stroke="#88A7A2"/>
  </g>
  <rect x="186" y="472" width="70" height="62" rx="12" fill="#16C2B0"/>
  <rect x="320" y="430" width="70" height="104" rx="12" fill="#22C87A"/>
  <rect x="454" y="496" width="70" height="38" rx="12" fill="#F5A623"/>
  <rect x="588" y="390" width="70" height="144" rx="12" fill="#22C87A"/>
  <rect x="722" y="446" width="70" height="88" rx="12" fill="#F04F4F"/>
  <text x="196" y="566" fill="#88A7A2" font-size="18" font-family="Arial, Helvetica, sans-serif">Arjun</text>
  <text x="330" y="566" fill="#88A7A2" font-size="18" font-family="Arial, Helvetica, sans-serif">Rohan</text>
  <text x="468" y="566" fill="#88A7A2" font-size="18" font-family="Arial, Helvetica, sans-serif">Priya</text>
  <text x="596" y="566" fill="#88A7A2" font-size="18" font-family="Arial, Helvetica, sans-serif">Neha</text>
  <text x="735" y="566" fill="#88A7A2" font-size="18" font-family="Arial, Helvetica, sans-serif">Karan</text>
  <rect x="988" y="346" width="488" height="234" rx="24" fill="#13262A" stroke="#315C5A"/>
  <text x="1020" y="392" fill="#EDF6F3" font-size="28" font-weight="700" font-family="Arial, Helvetica, sans-serif">Verdict Distribution</text>
  <circle cx="1140" cy="482" r="54" fill="#F04F4F" opacity="0.85"/>
  <circle cx="1248" cy="452" r="40" fill="#F5A623" opacity="0.9"/>
  <circle cx="1358" cy="418" r="72" fill="#22C87A" opacity="0.92"/>
  <text x="1118" y="490" fill="#FFFFFF" font-size="34" font-weight="700" font-family="Arial, Helvetica, sans-serif">1</text>
  <text x="1234" y="460" fill="#FFFFFF" font-size="26" font-weight="700" font-family="Arial, Helvetica, sans-serif">2</text>
  <text x="1334" y="430" fill="#FFFFFF" font-size="38" font-weight="700" font-family="Arial, Helvetica, sans-serif">5</text>
  <text x="1082" y="560" fill="#88A7A2" font-size="20" font-family="Arial, Helvetica, sans-serif">Disqualify</text>
  <text x="1212" y="560" fill="#88A7A2" font-size="20" font-family="Arial, Helvetica, sans-serif">Suspicious</text>
  <text x="1352" y="560" fill="#88A7A2" font-size="20" font-family="Arial, Helvetica, sans-serif">Safe</text>
  <rect x="94" y="614" width="930" height="196" rx="24" fill="#13262A" stroke="#315C5A"/>
  <text x="126" y="658" fill="#EDF6F3" font-size="28" font-weight="700" font-family="Arial, Helvetica, sans-serif">Session History</text>
  <g>
    <rect x="126" y="690" width="866" height="36" rx="18" fill="#101C1E"/>
    <circle cx="156" cy="708" r="14" fill="#22C87A" opacity="0.24"/>
    <text x="150" y="714" fill="#22C87A" font-size="16" font-weight="700" font-family="Arial, Helvetica, sans-serif">A</text>
    <text x="186" y="714" fill="#EDF6F3" font-size="18" font-family="Arial, Helvetica, sans-serif">Arjun Sharma</text>
    <text x="454" y="714" fill="#88A7A2" font-size="18" font-family="Arial, Helvetica, sans-serif">Software Engineer</text>
    <text x="900" y="714" fill="#22C87A" font-size="18" font-weight="700" font-family="Arial, Helvetica, sans-serif">SAFE · 87</text>
  </g>
  <g>
    <rect x="126" y="736" width="866" height="36" rx="18" fill="#101C1E"/>
    <circle cx="156" cy="754" r="14" fill="#F5A623" opacity="0.24"/>
    <text x="149" y="760" fill="#F5A623" font-size="16" font-weight="700" font-family="Arial, Helvetica, sans-serif">P</text>
    <text x="186" y="760" fill="#EDF6F3" font-size="18" font-family="Arial, Helvetica, sans-serif">Priya Nair</text>
    <text x="454" y="760" fill="#88A7A2" font-size="18" font-family="Arial, Helvetica, sans-serif">Product Manager</text>
    <text x="874" y="760" fill="#F5A623" font-size="18" font-weight="700" font-family="Arial, Helvetica, sans-serif">SUSPICIOUS · 63</text>
  </g>
  <rect x="1058" y="614" width="418" height="196" rx="24" fill="#13262A" stroke="#315C5A"/>
  <text x="1090" y="658" fill="#EDF6F3" font-size="28" font-weight="700" font-family="Arial, Helvetica, sans-serif">AI Stack</text>
  <text x="1090" y="706" fill="#88A7A2" font-size="22" font-family="Arial, Helvetica, sans-serif">Frontend</text>
  <text x="1328" y="706" fill="#EDF6F3" font-size="22" font-family="Arial, Helvetica, sans-serif">React.js</text>
  <text x="1090" y="742" fill="#88A7A2" font-size="22" font-family="Arial, Helvetica, sans-serif">Backend</text>
  <text x="1290" y="742" fill="#EDF6F3" font-size="22" font-family="Arial, Helvetica, sans-serif">FastAPI + Python</text>
  <text x="1090" y="778" fill="#88A7A2" font-size="22" font-family="Arial, Helvetica, sans-serif">AI Models</text>
  <text x="1252" y="778" fill="#EDF6F3" font-size="22" font-family="Arial, Helvetica, sans-serif">OpenCV · DeepFace · Librosa · YOLO</text>
</svg>
