<svg width="1600" height="900" viewBox="0 0 1600 900" fill="none" xmlns="http://www.w3.org/2000/svg">
  <rect width="1600" height="900" fill="#081316"/>
  <rect x="54" y="52" width="1492" height="796" rx="30" fill="#0E1D20" stroke="#234A49" stroke-width="2"/>
  <rect x="54" y="52" width="1492" height="78" rx="30" fill="#10191B"/>
  <text x="96" y="100" fill="#EDF6F3" font-size="32" font-weight="700" font-family="Arial, Helvetica, sans-serif">TruthLens AI</text>
  <rect x="1100" y="74" width="108" height="34" rx="17" fill="#13262A" stroke="#315C5A"/>
  <text x="1133" y="97" fill="#EDF6F3" font-size="18" font-family="Arial, Helvetica, sans-serif">Charan</text>
  <rect x="1222" y="74" width="102" height="34" rx="17" fill="#13262A" stroke="#315C5A"/>
  <text x="1252" y="97" fill="#EDF6F3" font-size="18" font-family="Arial, Helvetica, sans-serif">00:39</text>
  <rect x="1338" y="74" width="122" height="34" rx="17" fill="#2E1517" stroke="#7B2F34"/>
  <text x="1367" y="97" fill="#F04F4F" font-size="18" font-weight="700" font-family="Arial, Helvetica, sans-serif">45 DISQ</text>
  <rect x="1468" y="70" width="50" height="40" rx="14" fill="#F04F4F"/>
  <text x="1479" y="96" fill="#FFFFFF" font-size="18" font-weight="700" font-family="Arial, Helvetica, sans-serif">END</text>
  <rect x="88" y="164" width="912" height="628" rx="26" fill="#0A0F12" stroke="#315C5A" stroke-width="2"/>
  <rect x="126" y="202" width="836" height="552" rx="18" fill="#121B20"/>
  <ellipse cx="544" cy="438" rx="214" ry="230" fill="#172126"/>
  <circle cx="544" cy="348" r="84" fill="#243238"/>
  <rect x="426" y="434" width="236" height="198" rx="102" fill="#243238"/>
  <path d="M160 240H928" stroke="#16C2B0" stroke-opacity="0.35" stroke-width="2" stroke-dasharray="10 8"/>
  <path d="M160 716H928" stroke="#16C2B0" stroke-opacity="0.35" stroke-width="2" stroke-dasharray="10 8"/>
  <path d="M170 250V706" stroke="#16C2B0" stroke-opacity="0.35" stroke-width="2" stroke-dasharray="10 8"/>
  <path d="M918 250V706" stroke="#16C2B0" stroke-opacity="0.35" stroke-width="2" stroke-dasharray="10 8"/>
  <rect x="120" y="186" width="160" height="38" rx="19" fill="#13262A" stroke="#315C5A"/>
  <text x="146" y="210" fill="#16C2B0" font-size="20" font-family="Arial, Helvetica, sans-serif">LIVE ANALYSIS</text>
  <g>
    <rect x="700" y="226" width="220" height="42" rx="21" fill="#163235"/>
    <text x="740" y="253" fill="#CFFFF8" font-size="18" font-family="Arial, Helvetica, sans-serif">Confidence 38%</text>
    <rect x="690" y="278" width="230" height="42" rx="21" fill="#3A2318"/>
    <text x="738" y="305" fill="#FFD8A4" font-size="18" font-family="Arial, Helvetica, sans-serif">Stress 30%</text>
    <rect x="678" y="330" width="242" height="42" rx="21" fill="#321C1C"/>
    <text x="726" y="357" fill="#FFC5C5" font-size="18" font-family="Arial, Helvetica, sans-serif">Nervousness 22%</text>
  </g>
  <rect x="96" y="698" width="256" height="82" rx="20" fill="#13262A" stroke="#315C5A"/>
  <text x="122" y="728" fill="#16C2B0" font-size="18" font-family="Arial, Helvetica, sans-serif">ENVIRONMENT MONITORING</text>
  <text x="124" y="760" fill="#EDF6F3" font-size="20" font-family="Arial, Helvetica, sans-serif">Persons: 2  ·  Phone: Yes  ·  Risk: High</text>
  <rect x="1038" y="164" width="470" height="628" rx="26" fill="#111C1F" stroke="#315C5A"/>
  <text x="1074" y="208" fill="#EDF6F3" font-size="28" font-weight="700" font-family="Arial, Helvetica, sans-serif">Integrity Score</text>
  <circle cx="1270" cy="304" r="88" stroke="#203235" stroke-width="18"/>
  <path d="M1270 216 A88 88 0 1 1 1188 336" stroke="#F04F4F" stroke-width="18" stroke-linecap="round"/>
  <text x="1238" y="316" fill="#EDF6F3" font-size="54" font-weight="700" font-family="Arial, Helvetica, sans-serif">45</text>
  <text x="1218" y="346" fill="#88A7A2" font-size="18" font-family="Arial, Helvetica, sans-serif">OUT OF 100</text>
  <rect x="1080" y="382" width="380" height="42" rx="18" fill="#2E1517"/>
  <text x="1220" y="409" fill="#F04F4F" font-size="22" font-weight="700" font-family="Arial, Helvetica, sans-serif">DISQUALIFY</text>
  <text x="1074" y="470" fill="#EDF6F3" font-size="24" font-weight="700" font-family="Arial, Helvetica, sans-serif">Signal Breakdown</text>
  <g>
    <text x="1076" y="510" fill="#88A7A2" font-size="19" font-family="Arial, Helvetica, sans-serif">Emotion stability</text>
    <rect x="1238" y="493" width="184" height="12" rx="6" fill="#1D2A2C"/>
    <rect x="1238" y="493" width="138" height="12" rx="6" fill="#22C87A"/>
    <text x="1432" y="503" fill="#22C87A" font-size="18" font-family="Arial, Helvetica, sans-serif">84</text>
    <text x="1076" y="552" fill="#88A7A2" font-size="19" font-family="Arial, Helvetica, sans-serif">Eye contact</text>
    <rect x="1238" y="535" width="184" height="12" rx="6" fill="#1D2A2C"/>
    <rect x="1238" y="535" width="100" height="12" rx="6" fill="#F04F4F"/>
    <text x="1432" y="545" fill="#F04F4F" font-size="18" font-family="Arial, Helvetica, sans-serif">54</text>
    <text x="1076" y="594" fill="#88A7A2" font-size="19" font-family="Arial, Helvetica, sans-serif">Voice calmness</text>
    <rect x="1238" y="577" width="184" height="12" rx="6" fill="#1D2A2C"/>
    <rect x="1238" y="577" width="8" height="12" rx="6" fill="#F04F4F"/>
    <text x="1432" y="587" fill="#F04F4F" font-size="18" font-family="Arial, Helvetica, sans-serif">0</text>
    <text x="1076" y="636" fill="#88A7A2" font-size="19" font-family="Arial, Helvetica, sans-serif">Speaking pace</text>
    <rect x="1238" y="619" width="184" height="12" rx="6" fill="#1D2A2C"/>
    <rect x="1238" y="619" width="154" height="12" rx="6" fill="#22C87A"/>
    <text x="1432" y="629" fill="#22C87A" font-size="18" font-family="Arial, Helvetica, sans-serif">84</text>
  </g>
  <text x="1074" y="694" fill="#EDF6F3" font-size="24" font-weight="700" font-family="Arial, Helvetica, sans-serif">Active Flags</text>
  <rect x="1072" y="716" width="388" height="44" rx="18" fill="#101C1E"/>
  <circle cx="1100" cy="738" r="7" fill="#F04F4F"/>
  <text x="1118" y="744" fill="#EDF6F3" font-size="18" font-family="Arial, Helvetica, sans-serif">Voice stress spike detected [00:08]</text>
</svg>
